<svg width="16" height="21" viewBox="0 0 16 21" fill="none" xmlns="http://www.w3.org/2000/svg">
<path d="M2.74554 20.5001H12.4033C14.2445 20.5001 15.1489 19.5957 15.1489 17.7869V9.50718C15.1489 7.69836 14.2445 6.79395 12.4033 6.79395H2.74554C0.915176 6.79395 0 7.69836 0 9.50718V17.7869C0 19.5957 0.915176 20.5001 2.74554 20.5001ZM1.55043 17.7115V9.58255C1.55043 8.77504 1.99185 8.35514 2.76708 8.35514H12.3818C13.1463 8.35514 13.5985 8.77504 13.5985 9.58255V17.7115C13.5985 18.5298 13.1463 18.9389 12.3818 18.9389H2.76708C1.99185 18.9389 1.55043 18.5298 1.55043 17.7115Z" fill="#D24545"/>
<path d="M10.0347 13.0709V2.44407C10.0347 1.10898 8.92571 0 7.5691 0C6.22326 0 5.10352 1.10898 5.10352 2.44407V13.0709C5.10352 14.4168 6.22326 15.5257 7.5691 15.5257C8.92571 15.5257 10.0347 14.4168 10.0347 13.0709Z" fill="#F3F1F1"/>
<path d="M7.56869 13.8245C7.9886 13.8245 8.3439 13.48 8.3439 13.0709V4.67276L8.27931 3.38074L8.7315 3.87601L9.91585 5.15728C10.0558 5.30801 10.2496 5.38338 10.4327 5.38338C10.8418 5.38338 11.1433 5.10343 11.1433 4.71583C11.1433 4.5005 11.0571 4.34977 10.9064 4.20979L8.12857 1.55038C7.93477 1.35658 7.77325 1.29199 7.56869 1.29199C7.37489 1.29199 7.21339 1.35658 7.00881 1.55038L4.23099 4.20979C4.09101 4.34977 4.00488 4.5005 4.00488 4.71583C4.00488 5.10343 4.29557 5.38338 4.70472 5.38338C4.88776 5.38338 5.09232 5.30801 5.2323 5.15728L6.41665 3.87601L6.86886 3.38074L6.80425 4.67276V13.0709C6.80425 13.48 7.15955 13.8245 7.56869 13.8245Z" fill="#D24545"/>
</svg>
